<svg width="121" height="120" viewBox="0 0 121 120" fill="none" xmlns="http://www.w3.org/2000/svg">
<rect x="0.5" width="120" height="120" rx="60" fill="#FBF7E6"/>
<rect x="20.5" y="20" width="80" height="80" rx="40" fill="#F3E5B2"/>
<path d="M60.5002 43.3335C51.3168 43.3335 43.8335 50.8168 43.8335 60.0002C43.8335 69.1835 51.3168 76.6668 60.5002 76.6668C69.6835 76.6668 77.1668 69.1835 77.1668 60.0002C77.1668 50.8168 69.6835 43.3335 60.5002 43.3335ZM68.4668 56.1668L59.0168 65.6168C58.7835 65.8502 58.4668 65.9835 58.1335 65.9835C57.8002 65.9835 57.4835 65.8502 57.2502 65.6168L52.5335 60.9002C52.0502 60.4168 52.0502 59.6168 52.5335 59.1335C53.0168 58.6502 53.8168 58.6502 54.3002 59.1335L58.1335 62.9668L66.7002 54.4002C67.1835 53.9168 67.9835 53.9168 68.4668 54.4002C68.9502 54.8835 68.9502 55.6668 68.4668 56.1668Z" fill="url(#paint0_linear_278_39059)"/>
<defs>
<linearGradient id="paint0_linear_278_39059" x1="43.8335" y1="60.0002" x2="77.1668" y2="60.0002" gradientUnits="userSpaceOnUse">
<stop stop-color="#D7AB07"/>
<stop offset="1" stop-color="#E86555"/>
</linearGradient>
</defs>
</svg>
