<svg width="81" height="81" viewBox="0 0 81 81" fill="none" xmlns="http://www.w3.org/2000/svg">
<g clip-path="url(#clip0_1493_42671)">
<path d="M17.3677 50.9501C17.3677 55.5313 13.6314 59.2732 9.04955 59.2732C4.46768 59.2732 0.727051 55.5313 0.727051 50.9501C0.727051 46.3688 4.46893 42.627 9.05018 42.627H17.3683L17.3677 50.9501ZM21.5608 50.9501C21.5608 46.3688 25.3027 42.627 29.8839 42.627C34.4652 42.627 38.2071 46.3682 38.2071 50.9501V71.7845C38.2071 76.3657 34.4658 80.1076 29.8839 80.1076C25.3027 80.1076 21.5608 76.3657 21.5608 71.7845V50.9501Z" fill="#DE1C59"/>
<path d="M29.8839 17.5352C25.3027 17.5352 21.5608 13.7989 21.5608 9.21703C21.5608 4.63516 25.3027 0.894531 29.8839 0.894531C34.4652 0.894531 38.2071 4.63641 38.2071 9.21766V17.5358L29.8839 17.5352ZM29.8839 21.7283C34.4652 21.7283 38.2071 25.4702 38.2071 30.0514C38.2071 34.6327 34.4658 38.3745 29.8839 38.3745H9.04955C4.4683 38.3745 0.727051 34.6333 0.727051 30.0514C0.727051 25.4702 4.46893 21.7283 9.05018 21.7283H29.8839Z" fill="#35C5F0"/>
<path d="M63.2988 30.0514C63.2988 25.4702 67.0351 21.7283 71.617 21.7283C76.1988 21.7283 79.9401 25.4702 79.9401 30.0514C79.9401 34.6327 76.1982 38.3745 71.617 38.3745H63.2988V30.0514ZM59.1057 30.0514C59.1057 34.6327 55.3638 38.3745 50.7826 38.3745C46.2013 38.3745 42.4595 34.6333 42.4595 30.0514V9.21703C42.4595 4.63578 46.2007 0.894531 50.7826 0.894531C55.3638 0.894531 59.1057 4.63641 59.1057 9.21766V30.0514Z" fill="#2EB57D"/>
<path d="M50.7826 63.4663C55.3638 63.4663 59.1057 67.2026 59.1057 71.7845C59.1057 76.3663 55.3638 80.1076 50.7826 80.1076C46.2013 80.1076 42.4595 76.3657 42.4595 71.7845V63.4663H50.7826ZM50.7826 59.2732C46.2013 59.2732 42.4595 55.5313 42.4595 50.9501C42.4595 46.3688 46.2007 42.627 50.7826 42.627H71.617C76.1982 42.627 79.9401 46.3682 79.9401 50.9501C79.9401 55.5313 76.1982 59.2732 71.617 59.2732H50.7826Z" fill="#EBB02E"/>
</g>
<defs>
<clipPath id="clip0_1493_42671">
<rect width="80" height="80" fill="white" transform="translate(0.333252 0.5)"/>
</clipPath>
</defs>
</svg>
